<svg id="hardware" width="100%" height="100%" viewBox="0 0 327 40" fill="none" xmlns="http://www.w3.org/2000/svg">
    <path d="M181.873 14.9001L182.562 14.2197H188.762L189.45 14.9001L189.864 15.9887L180.151 39.3253L179.531 39.9376H171.471L181.873 14.9001Z" fill="white"/>
    <path d="M192.206 19.4585L196.89 31.7052H196.752L200.404 0.680368L201.023 -5.1908e-07H209.014L209.634 0.680368L204.812 39.3253L204.123 39.9376H192.413L191.793 39.3253L188.073 29.4599L192.206 19.4585Z" fill="white"/>
    <path d="M161.62 -5.1908e-07H169.611L170.231 0.680368L173.262 26.5344L167.613 39.9376H166.442L165.822 39.3253L161 0.680368L161.62 -5.1908e-07Z" fill="white"/>
    <path d="M222.331 -5.1908e-07L221.711 0.680368L210 39.3253L210.689 39.9376H218.818L219.438 39.3253L230.597 -5.1908e-07H222.331Z" fill="white"/>
    <path d="M238.106 0.680368L237.486 -5.1908e-07H234.179L231.768 8.77675L235.902 23.8129H227.497L225.086 32.0453H238.175L240.173 39.3253L240.793 39.9376H249.197L249.817 39.3253L238.106 0.680368Z" fill="white"/>
    <path d="M85 0.680368V39.3253L85.62 39.9376H93.6109L94.2309 39.3253V-5.1908e-07H85.62L85 0.680368Z" fill="white"/>
    <path d="M254 0.680368V39.3253L254.62 39.9376H262.611L263.231 39.3253V-5.1908e-07H254.62L254 0.680368Z" fill="white"/>
    <path d="M101.326 29.4598L107.113 39.3252L108.008 39.9375H117.377L117.859 39.3252L111.728 28.9155C109.868 29.3918 108.077 29.5279 106.493 29.5279H101.326V29.4598Z" fill="white"/>
    <path d="M270.326 29.4598L276.113 39.3252L277.008 39.9375H286.377L286.859 39.3252L280.728 28.9155C278.868 29.3918 277.077 29.5279 275.493 29.5279H270.326V29.4598Z" fill="white"/>
    <path d="M120.477 13.2673C120.477 6.05535 115.448 0.068115 105.322 0.068115H97.7441V8.43664H105.873C109.317 8.43664 111.177 10.6819 111.177 13.2673C111.177 15.8527 109.317 18.1659 105.873 18.1659H97.7441V26.4664C97.7441 26.4664 103.806 26.4664 106.148 26.4664C108.835 26.4664 111.659 26.1943 114.897 24.0171C118.686 21.4317 120.477 17.6896 120.477 13.2673Z" fill="white"/>
    <path d="M289.477 13.2673C289.477 6.05535 284.448 0.068115 274.322 0.068115H266.744V8.43664H274.873C278.317 8.43664 280.177 10.6819 280.177 13.2673C280.177 15.8527 278.317 18.1659 274.873 18.1659H266.744V26.4664C266.744 26.4664 272.806 26.4664 275.148 26.4664C277.835 26.4664 280.659 26.1943 283.897 24.0171C287.686 21.4317 289.477 17.6896 289.477 13.2673Z" fill="white"/>
    <path d="M33.6859 -5.1908e-07H25.695L25.0061 0.680368V39.3253L25.695 39.9376H33.6859L34.3059 39.3253V0.680368L33.6859 -5.1908e-07Z" fill="white"/>
    <path d="M9.29979 15.5804V0.680368L8.61091 -5.1908e-07H0.688871L-2.10227e-06 0.680368V39.3253L0.688871 39.9376H8.61091L9.29979 39.3253V24.3572H21.4928V15.5804H9.29979Z" fill="white"/>
    <path d="M307.813 8.77675H325.724L326.344 8.09638V0.680368L325.724 -5.1908e-07H307.813V8.77675Z" fill="white"/>
    <path d="M307.813 24.153H320.557L321.177 23.5406V16.3968L320.557 15.7844H307.813V24.153Z" fill="white"/>
    <path d="M304.3 -5.1908e-07H295.689L295 0.680368V39.3253L295.689 39.9376H304.3V-5.1908e-07Z" fill="white"/>
    <path d="M325.793 31.1609H307.813V39.9376H325.793L326.481 39.3253V31.8413L325.793 31.1609Z" fill="white"/>
    <path d="M134.231 -5.1908e-07H125.62L125 0.680368V39.3253L125.62 39.9376H134.231V-5.1908e-07Z" fill="white"/>
    <path d="M141.74 -5.1908e-07H137.813V8.30049H141.74C145.666 8.30049 148.353 10.4777 148.353 14.1517V25.854C148.353 29.528 145.666 31.7052 141.74 31.7052H137.813V39.9376H141.74C150.695 39.9376 157.584 35.9234 157.584 26.8065V13.1311C157.584 4.01417 150.695 -5.1908e-07 141.74 -5.1908e-07Z" fill="white"/>
    <path d="M52.3308 -5.1908e-07L51.7108 0.680368L40 39.3253L40.6889 39.9376H48.8176L49.4376 39.3253L60.5973 -5.1908e-07H52.3308Z" fill="white"/>
    <path d="M68.1749 0.680368L67.486 -5.1908e-07H64.2483L61.7684 8.77675L65.9016 23.8129H57.4974L55.1552 32.0453H68.1749L70.1726 39.3253L70.7926 39.9376H79.1969L79.8168 39.3253L68.1749 0.680368Z" fill="white"/>
</svg>
